<?xml version="1.0" standalone="no"?>
<!DOCTYPE svg PUBLIC "-//W3C//DTD SVG 20010904//EN"
 "http://www.w3.org/TR/2001/REC-SVG-20010904/DTD/svg10.dtd">
<svg version="1.0" xmlns="http://www.w3.org/2000/svg"
 width="3847.000000pt" height="2163.000000pt" viewBox="0 0 3847.000000 2163.000000"
 preserveAspectRatio="xMidYMid meet">

<g transform="translate(0.000000,2163.000000) scale(0.100000,-0.100000)"
fill="#000000" stroke="none">
<path d="M0 10815 l0 -10815 19205 0 19205 0 0 10815 0 10815 -19205 0 -19205
0 0 -10815z m19327 2750 c23 -19 62 -64 86 -98 47 -66 67 -79 176 -114 75 -25
76 -40 4 -33 -75 8 -152 48 -195 101 -18 23 -49 60 -69 83 -20 22 -39 49 -42
59 -4 9 -17 22 -29 27 -23 9 -23 9 3 9 15 1 42 -13 66 -34z m-938 -89 c-22
-22 -134 -106 -140 -106 -9 0 -25 48 -18 54 2 1 36 14 74 29 67 25 93 32 84
23z m1934 -108 c15 -5 27 -13 27 -17 0 -4 -35 -35 -78 -69 -78 -60 -165 -152
-214 -225 l-26 -39 -5 29 c-19 98 -19 107 10 145 57 74 218 201 243 192 8 -3
27 -11 43 -16z m-1290 -34 c23 -15 57 -40 75 -58 35 -32 136 -219 129 -239 -1
-5 -28 25 -59 69 -75 106 -110 138 -193 170 -38 15 -79 33 -90 41 -19 12 -18
13 6 13 13 0 41 -9 62 -19 20 -10 37 -15 37 -10 0 5 -7 12 -15 15 -17 7 -21
44 -5 44 6 0 29 -12 53 -26z m-1204 -151 c5 -21 12 -54 15 -74 4 -20 17 -52
29 -70 21 -32 92 -92 118 -101 7 -2 -2 -22 -24 -52 -20 -26 -58 -90 -84 -142
l-46 -94 -66 0 c-89 0 -211 25 -283 57 -61 27 -78 45 -78 85 0 14 -14 38 -35
58 l-34 33 44 39 c117 103 393 298 421 298 7 0 17 -17 23 -37z m-435 -407 c15
-52 17 -54 83 -84 75 -34 209 -62 296 -62 l57 0 -15 -37 c-12 -33 -62 -206
-105 -363 -6 -25 -26 -62 -44 -82 l-33 -37 -154 34 c-221 50 -409 99 -522 137
l-97 33 46 68 c25 37 52 71 60 74 8 3 38 -4 66 -16 73 -30 170 -47 194 -33 16
10 11 11 -28 12 -27 0 -84 13 -132 31 -93 33 -93 33 -46 88 19 21 23 22 53 11
67 -27 149 -74 168 -98 13 -17 19 -20 19 -9 0 8 -15 28 -32 43 -35 28 -144 84
-166 84 -21 0 14 44 144 179 l116 121 28 -20 c20 -14 34 -37 44 -74z m1408 14
c68 -25 143 -87 191 -157 30 -45 37 -64 37 -103 0 -91 -35 -142 -133 -191
-131 -67 -271 -76 -396 -25 -115 46 -159 113 -148 227 11 120 75 205 190 251
61 25 191 24 259 -2z m1233 -40 c4 -27 18 -66 31 -86 24 -35 24 -37 7 -56 -14
-15 -15 -24 -6 -48 10 -28 10 -28 -54 -55 -53 -23 -64 -31 -61 -49 3 -18 11
-21 58 -24 73 -4 155 12 269 55 61 23 102 33 118 28 14 -3 46 -28 72 -55 52
-55 72 -64 150 -75 31 -4 81 -22 115 -40 34 -19 103 -46 154 -61 51 -15 89
-31 85 -35 -15 -15 -460 -120 -673 -159 -280 -52 -561 -92 -613 -88 -40 3 -41
4 -53 53 -9 34 -10 51 -3 56 6 3 55 9 109 13 55 4 123 13 152 20 29 8 87 17
128 20 146 14 280 55 280 86 0 38 -22 43 -187 36 -87 -3 -187 -8 -223 -11
l-65 -5 41 19 c48 22 56 31 44 51 -7 11 -30 15 -95 14 -47 0 -85 2 -85 5 0 3
9 46 20 95 22 101 50 153 112 213 52 50 151 132 160 132 3 1 9 -21 13 -49z
m141 -162 c27 -12 76 -29 109 -39 l60 -17 -37 -16 c-92 -39 -214 -67 -284 -64
l-69 3 78 37 c42 21 77 41 77 46 0 5 -9 17 -20 27 -19 17 -19 19 -2 31 23 18
32 17 88 -8z m-1172 -254 c15 -39 6 -63 -36 -92 -53 -36 -114 -67 -149 -75
l-27 -7 34 64 c30 55 42 68 92 95 66 35 78 37 86 15z m868 0 c26 -8 13 -22
-32 -34 -23 -6 -40 -17 -40 -25 0 -18 58 -29 103 -21 66 12 280 25 328 19 38
-4 49 -10 47 -22 -4 -22 -134 -60 -243 -72 -49 -5 -117 -16 -150 -24 -33 -7
-108 -17 -166 -20 l-106 -7 -15 61 -16 61 36 0 c29 0 43 8 75 44 38 42 42 43
100 45 33 1 69 -1 79 -5z m-476 -29 c3 -8 4 -20 1 -27 -3 -9 -7 -6 -13 7 -4
11 -12 23 -18 27 -7 5 -4 8 7 8 10 0 20 -7 23 -15z m-2427 -40 c106 -35 391
-109 560 -144 51 -11 95 -21 96 -23 6 -5 -22 -111 -39 -150 -11 -26 -16 -68
-16 -142 0 -76 -5 -121 -20 -167 -18 -57 -26 -68 -73 -99 -41 -28 -59 -50 -87
-104 l-35 -69 3 -178 c3 -175 2 -180 -22 -221 -14 -25 -31 -79 -40 -130 -16
-92 -24 -113 -62 -164 l-23 -32 -65 62 c-71 69 -152 128 -208 151 -47 19 -49
8 -13 -57 28 -51 45 -150 38 -226 -5 -51 -7 -54 -52 -77 -67 -34 -125 -88
-173 -161 -39 -59 -45 -64 -78 -64 -19 0 -65 -11 -102 -23 l-67 -23 -15 85
c-31 170 -37 229 -43 431 -12 442 61 825 232 1212 70 157 176 348 193 348 5 0
55 -16 111 -35z m4186 -49 c39 -9 103 -16 143 -16 73 0 73 0 86 -32 8 -18 18
-75 24 -125 8 -76 14 -99 36 -128 69 -91 190 -99 283 -21 l32 27 16 -38 c97
-229 169 -527 196 -808 15 -151 6 -502 -16 -645 -38 -251 -115 -517 -210 -731
l-48 -106 -56 -13 c-67 -15 -319 -96 -413 -134 l-68 -27 -65 58 -65 58 29 14
c35 17 41 28 30 58 -6 17 -19 24 -49 29 -22 4 -43 10 -45 15 -3 4 19 26 48 48
30 22 57 49 59 59 3 11 -3 39 -13 62 -11 23 -19 49 -19 57 0 8 19 37 43 63 54
61 101 140 129 216 26 74 36 224 18 302 -24 110 -111 265 -228 411 -62 76 -90
132 -97 191 -11 88 49 150 145 150 52 0 141 -38 182 -77 26 -25 27 -28 12 -44
-10 -11 -18 -44 -21 -83 -5 -59 -3 -67 16 -84 22 -17 22 -21 11 -81 -11 -64
-7 -129 13 -166 11 -23 97 -118 97 -108 0 4 -19 34 -42 68 -40 56 -43 65 -46
136 -3 56 0 84 12 108 l17 31 28 -21 c37 -27 65 -22 69 12 3 22 7 25 29 21 27
-5 27 2 -2 38 -22 28 -25 60 -5 70 31 17 39 12 42 -27 2 -28 8 -39 22 -41 17
-4 18 0 12 44 -3 27 -13 54 -22 61 -15 11 -15 14 -1 36 21 33 52 39 73 16 15
-17 15 -21 0 -59 -18 -45 -22 -120 -6 -120 6 0 10 17 10 38 0 52 11 65 46 56
52 -12 100 -42 138 -84 108 -119 101 -250 -20 -365 -75 -71 -65 -91 11 -22 79
72 109 131 109 218 0 58 -4 74 -34 124 -43 71 -99 120 -162 143 -40 14 -48 21
-48 42 0 41 -26 70 -64 70 -20 0 -40 8 -51 20 -21 23 -52 25 -79 5 -18 -14
-24 -10 -82 45 -74 72 -165 117 -262 132 -65 10 -72 10 -128 -16 -32 -15 -69
-37 -82 -48 -59 -56 -108 -190 -96 -263 10 -63 46 -133 115 -225 153 -205 205
-322 197 -449 -8 -111 -37 -179 -114 -261 -75 -79 -106 -96 -194 -106 -64 -6
-100 -25 -100 -50 0 -7 -14 -22 -31 -35 -24 -17 -29 -26 -25 -45 5 -18 -2 -35
-25 -64 -18 -22 -36 -40 -41 -40 -4 0 -8 22 -8 49 0 59 -19 107 -57 143 -30
29 -91 58 -122 58 -26 0 -77 83 -100 162 -26 90 -41 116 -104 175 -65 62 -138
109 -190 125 -51 15 -92 88 -49 88 10 0 53 21 97 46 92 52 145 74 186 74 47 0
45 20 -9 69 -27 25 -75 78 -105 117 -55 70 -110 124 -128 124 -5 0 -9 4 -9 9
0 22 179 71 313 87 31 3 60 11 63 16 3 5 -41 55 -97 111 -112 110 -179 153
-287 183 -34 9 -62 20 -62 24 0 3 30 82 66 176 42 106 72 202 82 257 21 115
12 122 -72 60 -65 -49 -170 -103 -198 -103 -10 0 -25 15 -34 32 -10 18 -32 55
-51 82 -18 27 -32 50 -31 52 2 1 109 16 238 34 129 17 316 47 415 66 188 37
592 133 660 157 40 14 48 14 190 -17z m-2170 -41 c-14 -26 -25 -58 -25 -69 0
-17 -16 -28 -80 -54 -44 -17 -85 -32 -91 -32 -6 0 -24 9 -39 20 -25 18 -28 24
-19 48 8 24 19 30 77 45 38 10 97 35 133 56 35 21 65 37 66 36 1 0 -9 -23 -22
-50z m2669 -35 l28 -51 -19 -32 c-16 -26 -26 -33 -59 -35 -25 -2 -45 2 -51 10
-6 7 -15 46 -20 86 l-9 72 51 0 52 0 27 -50z m-2344 15 c-11 -28 -50 -89 -80
-125 l-21 -25 17 35 c18 37 84 140 90 140 2 0 -1 -11 -6 -25z m2200 -59 c0
-37 21 -86 40 -96 40 -22 99 -7 131 32 14 18 16 17 39 -31 l23 -51 -24 -26
c-71 -78 -209 -70 -260 13 -16 25 -24 57 -27 109 l-5 73 34 3 c44 4 49 2 49
-26z m-1815 -239 c29 -51 32 -70 8 -65 -11 2 -20 21 -28 56 -7 28 -11 52 -9
52 2 0 15 -20 29 -43z m1522 -567 c89 -44 146 -99 183 -176 32 -65 19 -76 -17
-13 -42 74 -153 177 -153 142 0 -5 22 -27 50 -51 54 -47 98 -113 110 -167 11
-49 -6 -34 -37 31 -84 178 -347 241 -427 104 -45 -76 -14 -186 86 -306 65 -77
155 -222 188 -300 57 -137 60 -273 10 -408 -35 -92 -145 -246 -175 -246 -32 0
-22 25 35 88 62 67 96 119 86 130 -3 3 -7 3 -9 1 -92 -125 -158 -192 -180
-183 -10 3 -17 9 -17 13 0 4 25 31 55 61 30 30 55 58 55 62 0 20 -28 4 -81
-47 -50 -48 -89 -69 -89 -49 0 3 35 41 79 83 113 110 161 230 147 366 -9 82
-82 228 -190 378 -143 198 -158 283 -74 424 30 50 75 84 136 104 54 17 143 1
229 -41z m267 -129 c3 -5 -3 -28 -13 -52 l-20 -43 -10 27 c-20 52 -12 74 26
76 6 1 14 -3 17 -8z m-144 -132 c0 -15 -50 -10 -56 6 -4 8 0 22 7 31 12 14 15
14 31 -6 10 -12 18 -26 18 -31z m41 -86 l18 -43 -37 19 c-20 10 -49 21 -65 25
-24 6 -26 9 -17 27 9 16 19 19 47 17 32 -3 38 -8 54 -45z m-3142 -724 c17 -6
31 -17 31 -25 0 -10 12 -14 40 -14 69 0 180 -65 180 -106 0 -20 5 -24 28 -24
17 0 38 -10 52 -25 34 -36 45 -31 22 9 -17 29 -18 35 -6 40 10 4 35 -13 67
-45 29 -29 67 -63 85 -76 28 -22 32 -31 32 -72 0 -30 10 -67 30 -109 l29 -62
-48 -25 -48 -24 -56 78 c-103 143 -277 291 -444 375 -40 20 -73 38 -73 41 0
11 34 75 40 75 4 0 21 -5 39 -11z m-801 -222 c12 -11 22 -29 22 -39 0 -16 -3
-17 -20 -8 -17 9 -50 58 -50 75 0 8 20 -4 48 -28z m94 -40 c16 -30 1 -31 -26
-2 -33 35 -37 68 -5 39 11 -10 25 -27 31 -37z m3333 -1 c11 -7 32 -16 47 -20
15 -3 32 -15 38 -26 6 -11 18 -20 26 -20 9 0 27 -9 41 -20 14 -11 22 -20 17
-20 -5 0 -2 -4 6 -10 12 -7 12 -12 -4 -29 -29 -32 -39 -26 -33 19 6 45 6 44
-38 29 -30 -11 -33 -9 -82 40 -28 28 -54 51 -57 51 -3 0 -6 -11 -6 -25 0 -18
-5 -25 -20 -25 -14 0 -20 7 -20 23 0 44 44 62 85 33z m-115 -23 c0 -14 -5 -55
-11 -90 -9 -50 -8 -67 2 -79 17 -21 -1 -37 -35 -28 -33 8 -33 18 0 61 27 36
27 41 8 131 -6 28 -4 32 15 32 16 0 21 -6 21 -27z m-3145 -12 c10 -17 -12 -21
-25 -6 -10 12 -10 15 3 15 9 0 18 -4 22 -9z m98 -32 c17 -2 -43 -16 -72 -18
-15 -1 -21 3 -15 8 12 12 45 20 62 15 8 -2 19 -5 25 -5z m2997 -22 c-1 -12 -7
-33 -14 -46 l-13 -24 -13 38 c-11 34 -11 40 5 51 22 17 35 9 35 -19z m183 -8
c8 -12 3 -29 -21 -70 -25 -44 -32 -50 -38 -36 -4 11 -1 43 5 73 13 57 32 68
54 33z m-83 -19 c0 -24 -21 -70 -32 -70 -10 0 -10 16 -2 59 7 34 34 43 34 11z
m-3058 -1 c46 -25 73 -148 47 -216 -5 -15 -22 -40 -37 -55 -38 -41 -75 -37
-123 11 -37 37 -39 41 -39 105 0 76 22 139 53 154 29 14 73 15 99 1z m3218
-40 c-6 -11 -18 -23 -26 -26 -16 -6 -38 -42 -31 -50 3 -2 19 3 36 11 42 22 94
21 89 -1 -2 -12 -16 -20 -40 -24 -20 -3 -50 -17 -67 -31 -32 -27 -60 -28 -82
-2 -6 8 -17 14 -23 14 -22 1 -46 27 -40 44 9 23 22 20 26 -6 3 -20 28 -39 28
-21 0 13 82 99 100 106 32 12 41 8 30 -14z m120 -23 c0 -16 -18 -31 -27 -22
-8 8 5 36 17 36 5 0 10 -6 10 -14z m-121 -140 c-13 -28 -24 -33 -35 -14 -4 6
3 19 16 30 28 23 34 18 19 -16z m108 -42 c6 -19 -55 -36 -80 -23 -20 11 -20
12 -1 26 22 16 76 14 81 -3z m573 -104 c-28 -55 -36 -63 -99 -95 -39 -19 -107
-59 -153 -89 -103 -67 -295 -131 -366 -122 -36 5 -47 2 -60 -14 -20 -24 -211
-72 -384 -97 -94 -14 -124 -15 -149 -6 -26 10 -36 10 -53 -2 -29 -21 -41 -19
-54 10 -15 33 -29 32 -50 -5 l-17 -30 -147 0 c-81 0 -149 4 -152 9 -4 5 -9 29
-12 54 l-6 44 188 7 c218 8 444 40 639 90 133 34 190 55 470 169 163 67 372
136 413 137 l22 0 -30 -60z m-4489 23 c-21 -36 -50 -67 -56 -61 -8 8 43 78 57
78 5 0 4 -8 -1 -17z m285 -19 c-4 -14 -9 -24 -12 -21 -3 2 -2 17 2 31 3 15 9
25 11 22 3 -3 2 -17 -1 -32z m-105 -64 c-10 -34 -36 -58 -49 -46 -2 3 6 31 18
62 19 46 25 53 33 39 6 -12 6 -30 -2 -55z m3550 3 c8 -9 28 -24 44 -35 30 -18
30 -18 5 -18 -14 0 -32 -4 -40 -10 -11 -7 -9 -11 13 -19 16 -6 36 -11 45 -11
31 -1 -8 -17 -101 -41 l-87 -23 -16 22 c-23 33 -50 28 -64 -12 -11 -33 -13
-34 -98 -50 -48 -10 -118 -20 -155 -23 -62 -5 -69 -4 -83 16 -22 31 -53 27
-67 -8 -10 -28 -14 -30 -81 -33 -63 -3 -75 -1 -105 21 l-34 24 -21 -26 c-39
-49 -116 -32 -116 25 0 29 383 98 650 118 58 4 122 12 143 18 36 10 111 55
123 74 8 13 31 9 45 -9z m-3947 -38 c8 -9 18 -16 21 -15 15 1 21 -1 35 -10 12
-8 11 -13 -9 -34 -18 -19 -21 -28 -12 -44 14 -27 41 -32 85 -17 35 12 37 12
22 -4 -48 -53 13 -106 74 -64 23 16 23 16 15 -3 -4 -10 -13 -34 -19 -51 -6
-18 -16 -33 -21 -33 -6 0 -41 10 -77 23 -72 24 -85 38 -182 189 l-36 57 32 10
c47 13 55 13 72 -4z m166 -20 c0 -8 -91 -67 -96 -62 -3 3 17 18 43 35 53 34
53 34 53 27z m4407 -103 c-37 -53 -78 -110 -91 -127 -24 -29 -25 -29 -39 -11
-9 13 -20 17 -32 12 -14 -5 -17 -15 -13 -57 4 -42 2 -51 -14 -60 -23 -12 -21
-14 -37 29 -13 32 -33 40 -60 23 -11 -7 -12 -19 -4 -60 9 -43 8 -51 -6 -54 -9
-2 -26 6 -39 17 -23 21 -24 21 -35 1 -7 -11 -14 -31 -17 -45 -4 -21 -27 -35
-140 -87 -111 -51 -141 -61 -171 -57 -33 5 -37 2 -48 -25 -11 -25 -30 -37
-133 -80 -66 -28 -123 -51 -127 -51 -3 0 -14 14 -23 30 -19 33 -39 38 -59 14
-10 -12 -10 -22 -2 -45 11 -28 10 -30 -25 -44 -47 -20 -322 -115 -332 -115
-12 0 -44 180 -34 189 5 4 90 34 189 66 99 31 236 76 305 98 69 22 168 62 222
88 53 27 134 63 180 79 102 38 231 110 362 203 114 81 277 179 285 172 2 -3
-25 -49 -62 -103z m-4215 -149 c15 -19 39 -16 66 10 l25 22 -18 -34 c-9 -18
-15 -46 -13 -61 l4 -26 -74 27 c-81 30 -95 39 -72 47 8 3 26 18 40 33 20 22
26 24 29 10 2 -9 8 -22 13 -28z m374 31 c62 -14 69 -14 80 0 10 15 13 15 24 1
9 -11 22 -14 42 -10 17 4 35 2 43 -5 10 -9 19 -9 28 -2 6 5 34 8 62 5 28 -3
116 -6 198 -7 91 -1 147 -5 147 -11 -2 -35 -70 -250 -79 -249 -6 1 -20 2 -32
3 -11 0 -23 10 -26 20 -8 32 -34 35 -57 7 l-21 -26 -193 25 c-258 33 -317 48
-332 85 -15 37 -36 44 -54 18 l-14 -20 -59 20 c-36 13 -49 21 -35 21 15 1 53
28 100 71 42 39 84 70 93 70 10 0 48 -7 85 -16z m-499 -83 c76 -27 179 -65
230 -85 50 -20 135 -47 189 -61 95 -25 378 -67 542 -80 72 -6 82 -9 82 -27 0
-15 -4 -18 -22 -12 -13 3 -28 11 -35 16 -7 5 -22 6 -35 2 -27 -9 -42 -8 -200
10 -82 10 -125 20 -138 31 -13 12 -26 14 -42 9 -30 -10 -64 -7 -157 12 -96 19
-204 51 -256 75 -22 10 -89 36 -150 59 -99 37 -155 70 -155 92 0 11 -6 13 147
-41z m4096 -61 l6 -45 -14 35 c-16 40 -19 79 -6 65 5 -6 11 -30 14 -55z m-827
-45 c22 -23 31 -26 72 -23 26 2 53 6 61 9 26 8 22 -19 -9 -54 -17 -20 -45 -39
-63 -43 -18 -3 -105 -31 -195 -60 -90 -30 -165 -54 -167 -54 -2 0 -8 15 -15
34 -6 18 -20 42 -31 52 -17 16 -22 16 -30 4 -5 -8 -8 -37 -7 -64 2 -42 -1 -50
-20 -57 -12 -5 -22 -5 -22 -1 0 4 -11 68 -24 142 -14 74 -23 136 -21 138 2 2
64 8 138 14 l135 11 32 -26 c37 -32 50 -34 50 -8 0 29 24 45 40 26 17 -21 27
-19 36 8 l8 22 4 -22 c2 -12 14 -33 28 -48z m-3215 4 c167 -66 235 -87 362
-114 65 -14 128 -30 140 -36 11 -7 50 -11 85 -10 80 2 223 -16 279 -34 23 -7
59 -12 79 -9 26 3 35 1 32 -8 -3 -7 -13 -53 -24 -101 -15 -72 -22 -89 -39 -92
-64 -13 -296 -47 -298 -44 -2 2 -10 21 -20 42 -11 25 -23 37 -37 37 -20 0 -22
-7 -25 -70 0 -21 -6 -25 -36 -28 -30 -3 -50 7 -135 69 -54 39 -112 83 -129 97
l-30 25 34 -8 c59 -13 31 18 -37 40 -55 18 -74 32 -168 125 -93 93 -153 160
-142 160 2 0 51 -18 109 -41z m3936 -51 c-3 -7 -5 -2 -5 12 0 14 2 19 5 13 2
-7 2 -19 0 -25z m73 14 c0 -5 -9 -17 -20 -27 -20 -18 -25 -11 -14 19 6 17 34
23 34 8z m-114 -68 c-5 -13 -1 -15 21 -9 27 6 27 6 9 -14 -17 -19 -20 -19 -42
-4 -33 21 -52 4 -56 -50 -3 -38 -9 -45 -88 -110 -47 -38 -116 -91 -155 -118
-62 -44 -71 -48 -80 -33 -5 9 -17 26 -26 37 -16 20 -17 20 -43 4 -26 -17 -26
-17 -9 -58 18 -47 16 -50 -58 -93 -42 -24 -46 -24 -61 -9 -22 21 -46 10 -50
-24 -3 -24 -14 -33 -78 -65 -76 -38 -281 -121 -285 -116 -6 7 -57 240 -53 243
2 2 80 31 173 63 94 33 177 62 186 66 12 5 19 0 27 -22 8 -25 14 -29 36 -25
23 5 26 10 24 37 -2 35 7 56 25 56 7 0 57 20 112 45 55 25 107 45 117 45 21 0
38 -29 38 -63 0 -26 16 -37 52 -37 19 0 20 4 15 58 -3 31 -8 65 -12 75 -6 14
9 25 91 62 55 25 110 52 124 60 34 20 54 19 46 -1z m-1017 -133 c-15 -5 -17
-1 -23 44 l-6 40 19 -40 c12 -24 16 -41 10 -44z m731 -14 c0 -19 -1 -20 -20
-2 -11 10 -20 27 -20 38 0 19 1 20 20 2 11 -10 20 -27 20 -38z m-370 -77 c0
-13 -1 -13 -10 0 -5 8 -10 22 -10 30 0 13 1 13 10 0 5 -8 10 -22 10 -30z
m-2657 -110 c3 -11 1 -20 -4 -20 -5 0 -9 9 -9 20 0 11 2 20 4 20 2 0 6 -9 9
-20z m336 -27 c-5 -21 -9 -41 -9 -45 0 -6 -71 -19 -215 -37 -77 -9 -82 -9
-128 16 -26 15 -44 29 -40 33 5 3 76 17 158 30 220 34 240 37 241 39 1 0 -2
-16 -7 -36z m2555 15 c10 -38 6 -45 -9 -18 -17 29 -18 40 -6 40 5 0 11 -10 15
-22z m-2577 -120 c-3 -13 -9 -40 -13 -61 -3 -21 -12 -41 -20 -44 -7 -2 -57 17
-110 44 l-97 48 39 7 c34 6 150 22 193 27 9 1 11 -6 8 -21z"/>
<path d="M18661 12673 c-47 -24 -71 -67 -71 -131 0 -119 64 -193 170 -194 94
0 150 50 166 151 9 54 -32 141 -80 170 -42 26 -136 28 -185 4z m139 -3 c35 0
87 -64 100 -122 10 -47 9 -58 -9 -100 -26 -62 -64 -82 -142 -76 -39 3 -66 11
-80 24 -59 52 -79 180 -36 229 23 27 109 58 135 49 8 -2 22 -4 32 -4z"/>
<path d="M18786 12598 c-3 -13 -6 -34 -6 -48 0 -14 -11 -51 -24 -83 -28 -67
-12 -73 21 -9 25 49 40 139 25 154 -6 6 -12 1 -16 -14z"/>
<path d="M21690 10964 c0 -4 8 -12 17 -19 9 -7 18 -23 20 -36 6 -40 12 -49 32
-49 18 0 19 -3 11 -26 -13 -34 -13 -39 5 -24 8 7 15 25 15 41 0 24 -4 29 -26
29 -23 0 -25 3 -19 29 5 23 2 32 -17 45 -24 17 -38 20 -38 10z"/>
<path d="M21540 10890 c-25 -25 -25 -46 -1 -60 39 -20 81 12 81 61 0 26 -53
26 -80 -1z m58 -17 c-2 -21 -9 -29 -27 -31 -36 -5 -47 12 -22 37 30 30 53 28
49 -6z"/>
<path d="M21642 10829 c-15 -24 -8 -55 15 -63 23 -9 26 -1 7 19 -14 14 -15 21
-6 36 6 10 8 20 4 23 -4 3 -14 -4 -20 -15z"/>
<path d="M21350 10828 c1 -16 60 -86 60 -71 0 5 -9 22 -20 36 -27 34 -25 40
10 32 19 -4 30 -3 30 4 0 6 -18 11 -40 11 -26 0 -40 -5 -40 -12z"/>
<path d="M21500 10770 c0 -5 12 -10 28 -10 33 0 45 -8 61 -38 27 -51 -41 -93
-100 -62 -15 8 -19 7 -19 -5 0 -15 31 -21 90 -17 52 3 68 75 25 117 -24 25
-85 35 -85 15z"/>
<path d="M21657 10672 c-10 -10 -17 -31 -17 -46 0 -28 -1 -28 -47 -21 -57 8
-50 8 -90 6 -22 -1 -33 -6 -33 -16 0 -20 58 -55 92 -55 15 0 30 -5 34 -12 7
-11 -28 -9 -103 7 -22 5 -33 4 -33 -4 0 -14 32 -27 99 -39 46 -8 51 -7 51 9 0
9 3 24 6 33 5 12 0 16 -20 16 -15 0 -43 8 -64 17 l-37 17 44 4 c23 2 56 -1 71
-7 28 -9 29 -9 49 50 11 32 18 59 17 59 -2 0 -10 -8 -19 -18z"/>
<path d="M21160 11280 c-12 -8 -12 -10 3 -16 21 -8 35 2 21 16 -5 5 -15 6 -24
0z"/>
<path d="M20950 10852 c0 -7 23 -42 50 -79 28 -36 64 -94 80 -130 16 -35 34
-62 39 -58 12 7 -26 100 -63 155 -35 52 -105 127 -106 112z"/>
<path d="M17708 9815 c-3 -3 -2 -25 3 -48 4 -23 8 -69 9 -102 0 -56 1 -58 17
-42 13 13 18 34 18 81 0 74 -25 133 -47 111z"/>
<path d="M20033 8979 c-7 -7 -13 -23 -13 -36 0 -19 5 -23 30 -23 35 0 39 17
13 49 -15 18 -20 20 -30 10z"/>
<path d="M20970 8770 c-11 -7 -12 -12 -3 -21 14 -14 53 -2 53 17 0 16 -28 18
-50 4z"/>
</g>
</svg>
